<svg xmlns="http://www.w3.org/2000/svg" version="1.1" xmlns:xlink="http://www.w3.org/1999/xlink" xmlns:svgjs="http://svgjs.dev/svgjs" width="1920" height="1080" preserveAspectRatio="none" viewBox="0 0 1920 1080"><g mask="url(&quot;#SvgjsMask1135&quot;)" fill="none"><rect width="1920" height="1080" x="0" y="0" fill="rgba(28, 28, 28, 1)"></rect><use xlink:href="#SvgjsG1143" transform="translate(0, 0)" fill="rgba(62, 62, 62, 1)"></use><use xlink:href="#SvgjsG1143" transform="translate(0, 448)" fill="rgba(62, 62, 62, 1)"></use><use xlink:href="#SvgjsG1143" transform="translate(0, 896)" fill="rgba(62, 62, 62, 1)"></use><use xlink:href="#SvgjsG1143" transform="translate(448, 0)" fill="rgba(62, 62, 62, 1)"></use><use xlink:href="#SvgjsG1143" transform="translate(448, 448)" fill="rgba(62, 62, 62, 1)"></use><use xlink:href="#SvgjsG1143" transform="translate(448, 896)" fill="rgba(62, 62, 62, 1)"></use><use xlink:href="#SvgjsG1143" transform="translate(896, 0)" fill="rgba(62, 62, 62, 1)"></use><use xlink:href="#SvgjsG1143" transform="translate(896, 448)" fill="rgba(62, 62, 62, 1)"></use><use xlink:href="#SvgjsG1143" transform="translate(896, 896)" fill="rgba(62, 62, 62, 1)"></use><use xlink:href="#SvgjsG1143" transform="translate(1344, 0)" fill="rgba(62, 62, 62, 1)"></use><use xlink:href="#SvgjsG1143" transform="translate(1344, 448)" fill="rgba(62, 62, 62, 1)"></use><use xlink:href="#SvgjsG1143" transform="translate(1344, 896)" fill="rgba(62, 62, 62, 1)"></use><use xlink:href="#SvgjsG1143" transform="translate(1792, 0)" fill="rgba(62, 62, 62, 1)"></use><use xlink:href="#SvgjsG1143" transform="translate(1792, 448)" fill="rgba(62, 62, 62, 1)"></use><use xlink:href="#SvgjsG1143" transform="translate(1792, 896)" fill="rgba(62, 62, 62, 1)"></use></g><defs><mask id="SvgjsMask1135"><rect width="1920" height="1080" fill="#ffffff"></rect></mask><g id="SvgjsG1136"><path d="M13.165 5.485L5.295 15.96l1.814-7.368-4.222 0.071L9.733 0 7.677 5.489l5.488-0.004z" fill-rule="evenodd"></path></g><g id="SvgjsG1137"><path d="M8.004 0C3.583-0.004 0 3.579 0 7.996c0 4.422 3.583 8.005 8.004 8.004 4.417 0.001 8-3.582 7.996-8.004C16.003 3.58 12.421-0.004 8.004 0zM1.555 9.305V6.677h12.915v2.628H1.555z"></path></g><g id="SvgjsG1138"><path d="M1.21 12.396C0.087 12.396 0 11.186 0 11.186V3.6h14.879S16 3.548 16 4.58c0 1.085-0.969 1.026-0.969 1.026H11.059a1.374 1.374 0 0 0-0.316-0.077L7.493 5.118l-3.592-1.035a0.216 0.216 0 0 0-0.267 0.147c-0.032 0.115 0.034 0.24 0.147 0.274l3.664 1.056a0.978 0.978 0 0 1 0.59 0.47 0.972 0.972 0 0 1 0.085 0.746 0.975 0.975 0 0 1-0.47 0.589 0.976 0.976 0 0 1-0.742 0.086c-0.002 0-0.003 0-0.006 0L5.36 7.004c-0.8-0.251-1.395 0.001-2.027 0.267-0.486 0.206-0.989 0.417-1.672 0.463a3.776 3.776 0 0 1-0.274 0.01 0.215 0.215 0 0 0-0.219 0.214c-0.002 0.118 0.099 0.224 0.219 0.224 0.916-0.002 1.555-0.27 2.117-0.509 0.603-0.254 1.078-0.456 1.73-0.251l0.324 0.094c-0.431 0.199-0.754 0.608-0.818 1.112-0.073 0.579 0.215 1.123 0.688 1.402a1.286 1.286 0 0 0-0.557 0.906c-0.089 0.704 0.412 1.391 1.117 1.459H1.21z" fill-rule="evenodd"></path><path d="M11.542 7.062c-0.068 0.538-0.561 0.922-1.1 0.853l-2.382-0.3a1.404 1.404 0 0 0 0.48-0.718 1.407 1.407 0 0 0-0.222-1.233l2.37 0.299a0.985 0.985 0 0 1 0.854 1.099M10.39 9.341a0.98 0.98 0 0 1-0.373 0.654 0.977 0.977 0 0 1-0.726 0.199L6.026 9.782a0.984 0.984 0 0 1-0.853-1.099 0.976 0.976 0 0 1 0.373-0.654 0.976 0.976 0 0 1 0.727-0.2l3.264 0.413a0.985 0.985 0 0 1 0.853 1.099M8.868 11.44a0.853 0.853 0 0 1-0.952 0.738l-1.875-0.237a0.852 0.852 0 0 1-0.737-0.951 0.852 0.852 0 0 1 0.951-0.737l1.874 0.237a0.852 0.852 0 0 1 0.745 0.843c0 0.037-0.001 0.072-0.006 0.107" fill-rule="evenodd"></path></g><g id="SvgjsG1139"><path d="M14.344 10.747c0 2.735-2.217 4.952-4.952 4.952-2.735 0-4.952-2.217-4.953-4.952 0-1.3 0.294-3.189 2.021-4.918 3.16-3.16 3.308-4.973 3.308-4.973 3.797 3.797 4.576 7.155 4.576 9.889z"></path><path d="M3.978 3.8s0.461 3.022 3.141 4.749c1.488 0.959 4.571 3.643 4.57 4.584 0 1.981-4.712 2.565-6.693 2.566s-3.588-1.606-3.588-3.588c0-1.982-0.18-5.56 2.571-8.311z"></path><path d="M8.123 6.557s0.08 0.983 1.792 2.695c0.936 0.935 1.095 1.959 1.095 2.663 0 1.482-1.201 2.683-2.684 2.683s-2.683-1.201-2.683-2.684c0-1.481 0.422-3.301 2.48-5.358z"></path></g><g id="SvgjsG1140"><path d="M4.096 1.54l10.36 10.364L11.906 14.46 1.54 4.096 4.096 1.54z" fill-rule="evenodd"></path><path d="M11.904 1.54L14.46 4.1 4.096 14.46 1.54 11.904 11.906 1.544z" fill-rule="evenodd"></path></g><g id="SvgjsG1141"><path d="M3.536 11.602h4.034c0.389 0.183 3.806 2.583 4.382 2.972l0.011-2.995h-0.022a2.761 2.761 0 0 0 2.422-2.742V3.09c0-1.527-1.234-2.766-2.765-2.765H3.538c-1.531 0-2.766 1.239-2.765 2.765v5.747c0 1.525 1.239 2.766 2.765 2.765z" fill-rule="evenodd"></path></g><g id="SvgjsG1142"><path d="M14.88 3.372H1.12l0.267-2.071h13.226z"></path><path d="M10.246 1.397H5.754l0.4-0.997h3.692z m1.134 2.712V13.96h-0.964V4.109h-1.934V13.96h-0.964V4.109H5.452V13.96h-0.965V4.109H2.002l0.667 11.434h10.662l0.8-11.434z"></path></g><g id="SvgjsG1143"><use xlink:href="#SvgjsG1136" transform="translate(0, 0) scale(1.4)" fill="rgba(62, 62, 62, 1)"></use><use xlink:href="#SvgjsG1137" transform="translate(0, 44.8) scale(1.4)" fill="rgba(62, 62, 62, 1)"></use><use xlink:href="#SvgjsG1138" transform="translate(0, 89.6) scale(1.4)" fill="rgba(62, 62, 62, 1)"></use><use xlink:href="#SvgjsG1139" transform="translate(0, 134.39999999999998) scale(1.4)" fill="rgba(62, 62, 62, 1)"></use><use xlink:href="#SvgjsG1140" transform="translate(0, 179.2) scale(1.4)" fill="rgba(62, 62, 62, 1)"></use><use xlink:href="#SvgjsG1141" transform="translate(0, 224) scale(1.4)" fill="rgba(62, 62, 62, 1)"></use><use xlink:href="#SvgjsG1142" transform="translate(0, 268.79999999999995) scale(1.4)" fill="rgba(62, 62, 62, 1)"></use><use xlink:href="#SvgjsG1136" transform="translate(0, 313.59999999999997) scale(1.4)" fill="rgba(62, 62, 62, 1)"></use><use xlink:href="#SvgjsG1137" transform="translate(0, 358.4) scale(1.4)" fill="rgba(62, 62, 62, 1)"></use><use xlink:href="#SvgjsG1138" transform="translate(0, 403.2) scale(1.4)" fill="rgba(62, 62, 62, 1)"></use><use xlink:href="#SvgjsG1137" transform="translate(44.8, 0) scale(1.4)" fill="rgba(62, 62, 62, 1)"></use><use xlink:href="#SvgjsG1138" transform="translate(44.8, 44.8) scale(1.4)" fill="rgba(62, 62, 62, 1)"></use><use xlink:href="#SvgjsG1139" transform="translate(44.8, 89.6) scale(1.4)" fill="rgba(62, 62, 62, 1)"></use><use xlink:href="#SvgjsG1140" transform="translate(44.8, 134.39999999999998) scale(1.4)" fill="rgba(62, 62, 62, 1)"></use><use xlink:href="#SvgjsG1141" transform="translate(44.8, 179.2) scale(1.4)" fill="rgba(62, 62, 62, 1)"></use><use xlink:href="#SvgjsG1142" transform="translate(44.8, 224) scale(1.4)" fill="rgba(62, 62, 62, 1)"></use><use xlink:href="#SvgjsG1136" transform="translate(44.8, 268.79999999999995) scale(1.4)" fill="rgba(62, 62, 62, 1)"></use><use xlink:href="#SvgjsG1137" transform="translate(44.8, 313.59999999999997) scale(1.4)" fill="rgba(62, 62, 62, 1)"></use><use xlink:href="#SvgjsG1138" transform="translate(44.8, 358.4) scale(1.4)" fill="rgba(62, 62, 62, 1)"></use><use xlink:href="#SvgjsG1139" transform="translate(44.8, 403.2) scale(1.4)" fill="rgba(62, 62, 62, 1)"></use><use xlink:href="#SvgjsG1138" transform="translate(89.6, 0) scale(1.4)" fill="rgba(62, 62, 62, 1)"></use><use xlink:href="#SvgjsG1139" transform="translate(89.6, 44.8) scale(1.4)" fill="rgba(62, 62, 62, 1)"></use><use xlink:href="#SvgjsG1140" transform="translate(89.6, 89.6) scale(1.4)" fill="rgba(62, 62, 62, 1)"></use><use xlink:href="#SvgjsG1141" transform="translate(89.6, 134.39999999999998) scale(1.4)" fill="rgba(62, 62, 62, 1)"></use><use xlink:href="#SvgjsG1142" transform="translate(89.6, 179.2) scale(1.4)" fill="rgba(62, 62, 62, 1)"></use><use xlink:href="#SvgjsG1136" transform="translate(89.6, 224) scale(1.4)" fill="rgba(62, 62, 62, 1)"></use><use xlink:href="#SvgjsG1137" transform="translate(89.6, 268.79999999999995) scale(1.4)" fill="rgba(62, 62, 62, 1)"></use><use xlink:href="#SvgjsG1138" transform="translate(89.6, 313.59999999999997) scale(1.4)" fill="rgba(62, 62, 62, 1)"></use><use xlink:href="#SvgjsG1139" transform="translate(89.6, 358.4) scale(1.4)" fill="rgba(62, 62, 62, 1)"></use><use xlink:href="#SvgjsG1140" transform="translate(89.6, 403.2) scale(1.4)" fill="rgba(62, 62, 62, 1)"></use><use xlink:href="#SvgjsG1139" transform="translate(134.39999999999998, 0) scale(1.4)" fill="rgba(62, 62, 62, 1)"></use><use xlink:href="#SvgjsG1140" transform="translate(134.39999999999998, 44.8) scale(1.4)" fill="rgba(62, 62, 62, 1)"></use><use xlink:href="#SvgjsG1141" transform="translate(134.39999999999998, 89.6) scale(1.4)" fill="rgba(62, 62, 62, 1)"></use><use xlink:href="#SvgjsG1142" transform="translate(134.39999999999998, 134.39999999999998) scale(1.4)" fill="rgba(62, 62, 62, 1)"></use><use xlink:href="#SvgjsG1136" transform="translate(134.39999999999998, 179.2) scale(1.4)" fill="rgba(62, 62, 62, 1)"></use><use xlink:href="#SvgjsG1137" transform="translate(134.39999999999998, 224) scale(1.4)" fill="rgba(62, 62, 62, 1)"></use><use xlink:href="#SvgjsG1138" transform="translate(134.39999999999998, 268.79999999999995) scale(1.4)" fill="rgba(62, 62, 62, 1)"></use><use xlink:href="#SvgjsG1139" transform="translate(134.39999999999998, 313.59999999999997) scale(1.4)" fill="rgba(62, 62, 62, 1)"></use><use xlink:href="#SvgjsG1140" transform="translate(134.39999999999998, 358.4) scale(1.4)" fill="rgba(62, 62, 62, 1)"></use><use xlink:href="#SvgjsG1141" transform="translate(134.39999999999998, 403.2) scale(1.4)" fill="rgba(62, 62, 62, 1)"></use><use xlink:href="#SvgjsG1140" transform="translate(179.2, 0) scale(1.4)" fill="rgba(62, 62, 62, 1)"></use><use xlink:href="#SvgjsG1141" transform="translate(179.2, 44.8) scale(1.4)" fill="rgba(62, 62, 62, 1)"></use><use xlink:href="#SvgjsG1142" transform="translate(179.2, 89.6) scale(1.4)" fill="rgba(62, 62, 62, 1)"></use><use xlink:href="#SvgjsG1136" transform="translate(179.2, 134.39999999999998) scale(1.4)" fill="rgba(62, 62, 62, 1)"></use><use xlink:href="#SvgjsG1137" transform="translate(179.2, 179.2) scale(1.4)" fill="rgba(62, 62, 62, 1)"></use><use xlink:href="#SvgjsG1138" transform="translate(179.2, 224) scale(1.4)" fill="rgba(62, 62, 62, 1)"></use><use xlink:href="#SvgjsG1139" transform="translate(179.2, 268.79999999999995) scale(1.4)" fill="rgba(62, 62, 62, 1)"></use><use xlink:href="#SvgjsG1140" transform="translate(179.2, 313.59999999999997) scale(1.4)" fill="rgba(62, 62, 62, 1)"></use><use xlink:href="#SvgjsG1141" transform="translate(179.2, 358.4) scale(1.4)" fill="rgba(62, 62, 62, 1)"></use><use xlink:href="#SvgjsG1142" transform="translate(179.2, 403.2) scale(1.4)" fill="rgba(62, 62, 62, 1)"></use><use xlink:href="#SvgjsG1141" transform="translate(224, 0) scale(1.4)" fill="rgba(62, 62, 62, 1)"></use><use xlink:href="#SvgjsG1142" transform="translate(224, 44.8) scale(1.4)" fill="rgba(62, 62, 62, 1)"></use><use xlink:href="#SvgjsG1136" transform="translate(224, 89.6) scale(1.4)" fill="rgba(62, 62, 62, 1)"></use><use xlink:href="#SvgjsG1137" transform="translate(224, 134.39999999999998) scale(1.4)" fill="rgba(62, 62, 62, 1)"></use><use xlink:href="#SvgjsG1138" transform="translate(224, 179.2) scale(1.4)" fill="rgba(62, 62, 62, 1)"></use><use xlink:href="#SvgjsG1139" transform="translate(224, 224) scale(1.4)" fill="rgba(62, 62, 62, 1)"></use><use xlink:href="#SvgjsG1140" transform="translate(224, 268.79999999999995) scale(1.4)" fill="rgba(62, 62, 62, 1)"></use><use xlink:href="#SvgjsG1141" transform="translate(224, 313.59999999999997) scale(1.4)" fill="rgba(62, 62, 62, 1)"></use><use xlink:href="#SvgjsG1142" transform="translate(224, 358.4) scale(1.4)" fill="rgba(62, 62, 62, 1)"></use><use xlink:href="#SvgjsG1136" transform="translate(224, 403.2) scale(1.4)" fill="rgba(62, 62, 62, 1)"></use><use xlink:href="#SvgjsG1142" transform="translate(268.79999999999995, 0) scale(1.4)" fill="rgba(62, 62, 62, 1)"></use><use xlink:href="#SvgjsG1136" transform="translate(268.79999999999995, 44.8) scale(1.4)" fill="rgba(62, 62, 62, 1)"></use><use xlink:href="#SvgjsG1137" transform="translate(268.79999999999995, 89.6) scale(1.4)" fill="rgba(62, 62, 62, 1)"></use><use xlink:href="#SvgjsG1138" transform="translate(268.79999999999995, 134.39999999999998) scale(1.4)" fill="rgba(62, 62, 62, 1)"></use><use xlink:href="#SvgjsG1139" transform="translate(268.79999999999995, 179.2) scale(1.4)" fill="rgba(62, 62, 62, 1)"></use><use xlink:href="#SvgjsG1140" transform="translate(268.79999999999995, 224) scale(1.4)" fill="rgba(62, 62, 62, 1)"></use><use xlink:href="#SvgjsG1141" transform="translate(268.79999999999995, 268.79999999999995) scale(1.4)" fill="rgba(62, 62, 62, 1)"></use><use xlink:href="#SvgjsG1142" transform="translate(268.79999999999995, 313.59999999999997) scale(1.4)" fill="rgba(62, 62, 62, 1)"></use><use xlink:href="#SvgjsG1136" transform="translate(268.79999999999995, 358.4) scale(1.4)" fill="rgba(62, 62, 62, 1)"></use><use xlink:href="#SvgjsG1137" transform="translate(268.79999999999995, 403.2) scale(1.4)" fill="rgba(62, 62, 62, 1)"></use><use xlink:href="#SvgjsG1136" transform="translate(313.59999999999997, 0) scale(1.4)" fill="rgba(62, 62, 62, 1)"></use><use xlink:href="#SvgjsG1137" transform="translate(313.59999999999997, 44.8) scale(1.4)" fill="rgba(62, 62, 62, 1)"></use><use xlink:href="#SvgjsG1138" transform="translate(313.59999999999997, 89.6) scale(1.4)" fill="rgba(62, 62, 62, 1)"></use><use xlink:href="#SvgjsG1139" transform="translate(313.59999999999997, 134.39999999999998) scale(1.4)" fill="rgba(62, 62, 62, 1)"></use><use xlink:href="#SvgjsG1140" transform="translate(313.59999999999997, 179.2) scale(1.4)" fill="rgba(62, 62, 62, 1)"></use><use xlink:href="#SvgjsG1141" transform="translate(313.59999999999997, 224) scale(1.4)" fill="rgba(62, 62, 62, 1)"></use><use xlink:href="#SvgjsG1142" transform="translate(313.59999999999997, 268.79999999999995) scale(1.4)" fill="rgba(62, 62, 62, 1)"></use><use xlink:href="#SvgjsG1136" transform="translate(313.59999999999997, 313.59999999999997) scale(1.4)" fill="rgba(62, 62, 62, 1)"></use><use xlink:href="#SvgjsG1137" transform="translate(313.59999999999997, 358.4) scale(1.4)" fill="rgba(62, 62, 62, 1)"></use><use xlink:href="#SvgjsG1138" transform="translate(313.59999999999997, 403.2) scale(1.4)" fill="rgba(62, 62, 62, 1)"></use><use xlink:href="#SvgjsG1137" transform="translate(358.4, 0) scale(1.4)" fill="rgba(62, 62, 62, 1)"></use><use xlink:href="#SvgjsG1138" transform="translate(358.4, 44.8) scale(1.4)" fill="rgba(62, 62, 62, 1)"></use><use xlink:href="#SvgjsG1139" transform="translate(358.4, 89.6) scale(1.4)" fill="rgba(62, 62, 62, 1)"></use><use xlink:href="#SvgjsG1140" transform="translate(358.4, 134.39999999999998) scale(1.4)" fill="rgba(62, 62, 62, 1)"></use><use xlink:href="#SvgjsG1141" transform="translate(358.4, 179.2) scale(1.4)" fill="rgba(62, 62, 62, 1)"></use><use xlink:href="#SvgjsG1142" transform="translate(358.4, 224) scale(1.4)" fill="rgba(62, 62, 62, 1)"></use><use xlink:href="#SvgjsG1136" transform="translate(358.4, 268.79999999999995) scale(1.4)" fill="rgba(62, 62, 62, 1)"></use><use xlink:href="#SvgjsG1137" transform="translate(358.4, 313.59999999999997) scale(1.4)" fill="rgba(62, 62, 62, 1)"></use><use xlink:href="#SvgjsG1138" transform="translate(358.4, 358.4) scale(1.4)" fill="rgba(62, 62, 62, 1)"></use><use xlink:href="#SvgjsG1139" transform="translate(358.4, 403.2) scale(1.4)" fill="rgba(62, 62, 62, 1)"></use><use xlink:href="#SvgjsG1138" transform="translate(403.2, 0) scale(1.4)" fill="rgba(62, 62, 62, 1)"></use><use xlink:href="#SvgjsG1139" transform="translate(403.2, 44.8) scale(1.4)" fill="rgba(62, 62, 62, 1)"></use><use xlink:href="#SvgjsG1140" transform="translate(403.2, 89.6) scale(1.4)" fill="rgba(62, 62, 62, 1)"></use><use xlink:href="#SvgjsG1141" transform="translate(403.2, 134.39999999999998) scale(1.4)" fill="rgba(62, 62, 62, 1)"></use><use xlink:href="#SvgjsG1142" transform="translate(403.2, 179.2) scale(1.4)" fill="rgba(62, 62, 62, 1)"></use><use xlink:href="#SvgjsG1136" transform="translate(403.2, 224) scale(1.4)" fill="rgba(62, 62, 62, 1)"></use><use xlink:href="#SvgjsG1137" transform="translate(403.2, 268.79999999999995) scale(1.4)" fill="rgba(62, 62, 62, 1)"></use><use xlink:href="#SvgjsG1138" transform="translate(403.2, 313.59999999999997) scale(1.4)" fill="rgba(62, 62, 62, 1)"></use><use xlink:href="#SvgjsG1139" transform="translate(403.2, 358.4) scale(1.4)" fill="rgba(62, 62, 62, 1)"></use><use xlink:href="#SvgjsG1140" transform="translate(403.2, 403.2) scale(1.4)" fill="rgba(62, 62, 62, 1)"></use></g></defs></svg>